<?xml version="1.0" encoding="UTF-8"?>
<svg width="23px" height="23px" viewBox="0 0 23 23" version="1.1" xmlns="http://www.w3.org/2000/svg" xmlns:xlink="http://www.w3.org/1999/xlink">
    <!-- Generator: Sketch 47 (45396) - http://www.bohemiancoding.com/sketch -->
    <title>Shape</title>
    <desc>Created with Sketch.</desc>
    <defs></defs>
    <g id="Page-1" stroke="none" stroke-width="1" fill="none" fill-rule="evenodd">
        <g id="Release-Calender" transform="translate(-1373.000000, -80.000000)" fill-rule="nonzero" fill="#000000">
            <path d="M1395.97507,100.24197 L1394.02432,86.5995717 C1393.96694,86.3533191 1393.73745,86.1563169 1393.45057,86.1563169 L1389.26221,86.1563169 L1389.26221,84.7773019 C1389.26221,81.9207709 1387.42621,80 1384.67222,80 C1381.91822,80 1380.08223,81.9207709 1380.08223,84.7773019 L1380.08223,86.1563169 L1375.54961,86.1563169 C1375.26274,86.1563169 1375.03324,86.3533191 1374.97586,86.5995717 L1373.02512,100.24197 C1372.91037,100.931478 1373.19724,101.670236 1373.71361,102.162741 C1374.22999,102.704497 1375.03324,103 1375.83648,103 L1393.10632,103 C1393.90957,103 1394.71282,102.704497 1395.22919,102.162741 C1395.80294,101.670236 1396.08982,100.931478 1395.97507,100.24197 Z M1381.22972,84.8265525 C1381.22972,83.0535332 1382.14772,81.0342612 1384.67222,81.0342612 C1387.19671,81.0342612 1388.11471,83.0535332 1388.11471,84.8265525 L1388.11471,86.2055675 L1381.22972,86.2055675 L1381.22972,84.8265525 Z M1394.42594,101.522484 C1394.08169,101.817987 1393.6227,102.014989 1393.1637,102.014989 L1375.83648,102.014989 C1375.32011,102.014989 1374.86111,101.817987 1374.57424,101.522484 C1374.28736,101.226981 1374.11524,100.783726 1374.17261,100.340471 L1376.06598,87.1905782 L1392.9342,87.1905782 L1394.82757,100.389722 C1394.88494,100.783726 1394.71282,101.226981 1394.42594,101.522484 Z" id="Shape"></path>
        </g>
    </g>
</svg>