<?xml version="1.0" encoding="utf-8"?>
<!-- Generator: Adobe Illustrator 16.0.0, SVG Export Plug-In . SVG Version: 6.00 Build 0)  -->
<!DOCTYPE svg PUBLIC "-//W3C//DTD SVG 1.1//EN" "http://www.w3.org/Graphics/SVG/1.1/DTD/svg11.dtd">
<svg version="1.1" id="Layer_1" xmlns="http://www.w3.org/2000/svg" xmlns:xlink="http://www.w3.org/1999/xlink" x="0px" y="0px"
	 width="21px" height="21px" viewBox="0 0 21 21" enable-background="new 0 0 21 21" xml:space="preserve">
<title>Shape</title>
<desc>Created with Sketch.</desc>
<g id="Page-1">
	<g id="Release-Calender" transform="translate(-1271.000000, -83.000000)">
		<path id="Shape" fill="#D1D1D1" d="M1271,90.566c0,4.174,3.4,7.566,7.581,7.566c1.91,0,3.656-0.701,4.991-1.867l7.568,7.586
			c0.198,0.197,0.514,0.197,0.711,0c0.197-0.196,0.197-0.52,0-0.717l-7.568-7.587c1.167-1.331,1.879-3.077,1.879-4.981
			c0-4.173-3.4-7.566-7.581-7.566S1271,86.394,1271,90.566z M1278.581,84.009c3.635,0,6.57,2.93,6.57,6.558
			c0,3.628-2.936,6.559-6.57,6.559s-6.57-2.931-6.57-6.559C1272.011,86.939,1274.946,84.009,1278.581,84.009z"/>
	</g>
</g>
</svg>
