<?xml version="1.0" encoding="UTF-8"?>
<svg width="21px" height="21px" viewBox="0 0 21 21" version="1.1" xmlns="http://www.w3.org/2000/svg" xmlns:xlink="http://www.w3.org/1999/xlink">
    <!-- Generator: Sketch 47 (45396) - http://www.bohemiancoding.com/sketch -->
    <title>Shape</title>
    <desc>Created with Sketch.</desc>
    <defs></defs>
    <g id="Page-1" stroke="none" stroke-width="1" fill="none" fill-rule="evenodd">
        <g id="Release-Calender" transform="translate(-1271.000000, -83.000000)" fill-rule="nonzero" fill="#000000">
            <path d="M1271,90.5666198 C1271,94.7395513 1274.40015,98.133237 1278.58102,98.133237 C1280.4907,98.133237 1282.2376,97.4321713 1283.57186,96.2652591 L1291.14124,103.852253 C1291.3386,104.049249 1291.65457,104.049249 1291.85196,103.852253 C1292.04935,103.655257 1292.04935,103.332011 1291.85196,103.135015 L1284.28259,95.5479958 C1285.45019,94.2166093 1286.16205,92.4712745 1286.16205,90.5666198 C1286.16205,86.3936529 1282.76189,83 1278.58102,83 C1274.40015,83 1271,86.3936529 1271,90.5666198 Z M1278.58102,84.0088816 C1282.21561,84.0088816 1285.15125,86.9389057 1285.15125,90.5666198 C1285.15125,94.194306 1282.21561,97.1243655 1278.58102,97.1243655 C1274.94644,97.1243655 1272.0108,94.194306 1272.0108,90.5666198 C1272.0108,86.9389057 1274.94644,84.0088816 1278.58102,84.0088816 Z" id="Shape"></path>
        </g>
    </g>
</svg>