<?xml version="1.0" encoding="UTF-8"?>
<svg width="19px" height="22px" viewBox="0 0 19 22" version="1.1" xmlns="http://www.w3.org/2000/svg" xmlns:xlink="http://www.w3.org/1999/xlink">
    <!-- Generator: Sketch 47 (45396) - http://www.bohemiancoding.com/sketch -->
    <title>Shape</title>
    <desc>Created with Sketch.</desc>
    <defs></defs>
    <g id="Page-1" stroke="none" stroke-width="1" fill="none" fill-rule="evenodd">
        <g id="Release-Calender" transform="translate(-1323.000000, -82.000000)" fill-rule="nonzero" fill="#000000">
            <path d="M1342,103.45 C1342,103.753757 1341.74981,104 1341.44118,104 C1341.13255,104 1340.88235,103.753757 1340.88235,103.45 C1340.88235,98.8936508 1337.12945,95.2 1332.5,95.2 C1327.87055,95.2 1324.11765,98.8936508 1324.11765,103.45 C1324.11765,103.753757 1323.86745,104 1323.55882,104 C1323.25019,104 1323,103.753757 1323,103.45 C1323,98.2861376 1327.25329,94.1 1332.5,94.1 C1337.74671,94.1 1342,98.2861376 1342,103.45 Z M1332.5,93 C1329.4137,93 1326.91176,90.5375661 1326.91176,87.5 C1326.91176,84.4624339 1329.4137,82 1332.5,82 C1335.5863,82 1338.08824,84.4624339 1338.08824,87.5 C1338.08824,90.5375661 1335.5863,93 1332.5,93 Z M1332.5,91.9 C1334.96904,91.9 1336.97059,89.9300529 1336.97059,87.5 C1336.97059,85.0699471 1334.96904,83.1 1332.5,83.1 C1330.03096,83.1 1328.02941,85.0699471 1328.02941,87.5 C1328.02941,89.9300529 1330.03096,91.9 1332.5,91.9 Z" id="Shape"></path>
        </g>
    </g>
</svg>